<?xml version="1.0" encoding="utf-8"?>
<!-- Generator: Adobe Illustrator 17.0.0, SVG Export Plug-In . SVG Version: 6.00 Build 0)  -->
<!DOCTYPE svg PUBLIC "-//W3C//DTD SVG 1.1//EN" "http://www.w3.org/Graphics/SVG/1.1/DTD/svg11.dtd">
<svg version="1.1" id="Layer_1" xmlns="http://www.w3.org/2000/svg" xmlns:xlink="http://www.w3.org/1999/xlink" x="0px" y="0px"
	 width="655.4px" height="655.4px" viewBox="-12.9 44 655.4 655.4" style="enable-background:new -12.9 44 655.4 655.4;"
	 xml:space="preserve">
<style type="text/css">
	.st0{fill:#FFFFFF;}
	.st1{fill:#BCBCBC;}
</style>
<circle class="st0" cx="314.8" cy="371.7" r="327.7"/>
<path class="st1" d="M412.4,576.6c-68,0-135.1,0-203.1,0c-2.3-19.1-4.6-37.8-6.9-56.5c-5.3-43.5-10.5-87-16.1-130.4
	c-0.3-2.4-4.3-5.5-7.2-6.4c-33.9-9.6-57.1-30.6-65.8-64.9c-8.7-34.1,0-64.6,26.2-88.5c25.5-23.2,55.7-28.9,88.9-18.9
	c1.6,0.5,3.2,1.1,5.4,1.9c18.2-29.7,44.8-46.4,79.5-46.1c34.7,0.3,61.2,17.2,79,47.9c30.5-13,60-11.3,87.7,6.8
	c20,13,32.4,31.6,37.8,54.8c9.9,42.3-13.8,102.3-83.8,109.3C426.8,448.8,419.6,512.2,412.4,576.6z M359.2,537.6
	c6.3,0,11.5-0.5,16.6,0.1c7.9,0.9,10.4-2.1,10.8-10c1.9-31.1,4.7-62.2,7-93.3c1-13.8,1.6-27.6,2.4-41.7c-9.1,0-17.2,0-26.1,0
	C366.4,440.6,362.9,488.2,359.2,537.6z M267.9,537.1c-3.7-48.4-7.3-96.2-11-144.3c-9,0-17.3,0-26.3,0c3.6,48.5,7.2,96.3,10.8,144.3
	C250.7,537.1,258.8,537.1,267.9,537.1z M302.5,392.8c0,48.4,0,96.1,0,144.2c8.7,0,16.7,0,25.2,0c0-48.3,0-96,0-144.2
	C319.3,392.8,311.2,392.8,302.5,392.8z"/>
</svg>
