<?xml version="1.0" encoding="utf-8"?>
<!-- Generator: Adobe Illustrator 17.0.0, SVG Export Plug-In . SVG Version: 6.00 Build 0)  -->
<!DOCTYPE svg PUBLIC "-//W3C//DTD SVG 1.1//EN" "http://www.w3.org/Graphics/SVG/1.1/DTD/svg11.dtd">
<svg version="1.1" id="Layer_1" xmlns="http://www.w3.org/2000/svg" xmlns:xlink="http://www.w3.org/1999/xlink" x="0px" y="0px"
	 width="449.5px" height="702.4px" viewBox="0 0 449.5 702.4" style="enable-background:new 0 0 449.5 702.4;" xml:space="preserve"
	>
<style type="text/css">
	.st0{fill:#3FC0C8;}
	.st1{fill:#FFFFFF;}
	.st2{fill:#FFDC00;}
	.st3{fill:#2DAA66;}
	.st4{fill:#268F56;}
	.st5{fill:#217A4A;}
	.st6{fill:#E74E1B;}
</style>
<g>
	<rect x="121.7" y="221.3" class="st0" width="327.8" height="441.1"/>
	<rect x="151.9" y="251.3" class="st1" width="267.5" height="379.4"/>
	<circle class="st2" cx="163.3" cy="441.8" r="163.3"/>
	<g>
		<polygon class="st3" points="419.5,632.4 270.8,702.4 270.8,181.3 419.5,251.3 		"/>
		<rect x="258.9" y="181.3" class="st4" width="11.8" height="521.1"/>
		<g>
			<path class="st5" d="M289.8,422.3c-5.1,0-9.3,6.7-9.3,15c0,8.3,4.2,15,9.3,15h9.3v-29.9H289.8z"/>
			<ellipse class="st4" cx="299.1" cy="437.2" rx="9.3" ry="15"/>
		</g>
	</g>
	<path class="st6" d="M252,387.1c-1.6-1.6-4.1-1.6-5.6,0l-26.2,26.2c-1.1,1.1-2.8,1.1-3.8,0c-1.1-1.1-1.1-2.8,0-3.8l26.2-26.2
		c1.6-1.6,1.6-4.1,0-5.6c-1.6-1.6-4.1-1.6-5.6,0l-26.2,26.2c-1.1,1.1-2.8,1.1-3.8,0c-1.1-1.1-1.1-2.8,0-3.8l26.2-26.2
		c1.6-1.6,1.6-4.1,0-5.6c-1.6-1.6-4.1-1.6-5.6,0l-26.2,26.2c-1.1,1.1-2.8,1.1-3.8,0c-1.1-1.1-1.1-2.8,0-3.8l26.2-26.2
		c1.6-1.6,1.6-4.1,0-5.6c-1.6-1.6-4.1-1.6-5.6,0l-30.8,30.8c-8,8-4.7,16.3-6,27.1c-0.5,4-6.6,11.1-11.1,15.9l8.2,8.2
		c4.8-4.5,11.9-10.6,15.9-11.1c10.7-1.3,19.1,2,27.1-6l30.8-30.8h0c0,0,0,0,0,0v0C253.6,391.2,253.6,388.6,252,387.1z M234.6,503
		l-138-138l0,0c-3.7-3.3-7.8-5.4-11.7-5.4c-2.8,0-5.5,1.1-8,3.6c-16.5,16.5,29.8,78.9,60.9,92.2c5.7,2.5,10.9,2.8,13.3,2.8
		c0.9,0,1.5,0,1.5,0l63.5,63.5c2.6,2.6,6,3.9,9.3,3.9c3.4,0,6.8-1.3,9.3-3.9C239.8,516.5,239.8,508.2,234.6,503
		C234.7,503,234.6,503,234.6,503z M139.2,460.4c-23.2,20.1-50.9,43.3-50.9,43.3c-5.1,5.2-5.1,13.5,0,18.6c5.2,5.1,13.5,5.2,18.6,0
		c0,0,0,0,0.1-0.1c0,0,26.8-32,47.7-55.9l-3.9-3.9C148.4,462.4,144.1,462.1,139.2,460.4z"/>
	<g>
		<g>
			<path class="st6" d="M48.6,129.7c0.1-0.1,0.2-0.1,0.5-0.1c1.1,0.1,5.9-0.1,5.9-0.1c0.1-0.1,0.4,0.3,0.6,0.5
				c4.4,7.7,10.6,23.5,11.8,23.8c0.8,0.2,7-4.7,9.1-4.1c3.1,0.9,5.9,1,7.6,3.5c1.4,1.9,0.8,3.6-0.6,4.5c-1.5,1-9.4,4.2-9.7,6.7
				c-0.4,2.7,8.4,12.8,13.3,19.7c0.6,0.9,5,6.3,5.3,6.8c0.7,1,1.1,2.5,0.2,3.4c-1.3,1.3-5.1,1.5-6.4,0.7c-0.4-0.3-1.8,0.6-2.9-0.9
				c-0.5-0.6-1.2-1.5-1.8-2.4c-3.3-4.6-12.5-21.4-13.5-21.5c-2-0.2-16.8,20.3-16.6,26.1c0.4,12,15.1,39.7,10,60.5
				c-3.1,12.3-9.1,17.1-15,8.7c-2.7-3.8-3.4-5.6-3.4-6.3c0.1-0.9,1.9,0.4,1.9,0.4c0.3,0.5,0.6,1,0.8,1.3c4,5.7,8.6,4,10.4-4.7
				c3.8-17.9-7.4-53.7-7.4-53.7c-0.4,0-3.7,10.5-5.2,14.9c-1.9,5.9-3.5,10.7-5.1,13.5c-1.1,1.8-6.2,4.2-6.2,4.2s-1.3-0.6-1.7-1.2
				c-0.1-0.2-0.2-0.2-0.1-0.4c0.3-1.6,1.8-2.5,3.3-9.3c2.5-11.4,10.1-26.4,9.6-33.4c-0.3-4.8-11.1-19.1-13.5-22.6
				c-1.4-2.1-2.4-3.7-3.4-5.2c-0.2-0.3-0.2-0.6-0.1-0.9c0.3-0.5,1.3-0.7,1.7-0.2c3.9,5.6,8.1,10.1,11.9,15.5
				c1.7,2.4,5.5,8.4,5.5,8.4c1.3-0.1,15.9-22.2,16.4-26.5c0.5-4.5-9.7-18.4-13.3-28.2C48.6,131,48.2,130,48.6,129.7z"/>
			<path class="st6" d="M82.9,144.4c1.3-0.8,2.5-2,4.2-3.3c0.7-0.6,1.3,0.1,1.3,0.1c5.6,11.9,7.6,16.9,12.9,24.3
				c1.8,2.5,3.1,3,4.1,2.4c1.7-1,1.9-5.3,1.7-7.4c0-0.3,0.2-0.7,0.4-0.8c0.2-0.1,0.5-0.1,0.7,0.2c0,0.1,0.1,0.1,0.1,0.1
				c2.1,4.7,1.6,10.3-2,12.5c-4.2,2.6-9.2-1.9-13.6-8.1c-4.6-6.5-8.4-14.6-10-18.4C82.7,146,82.3,144.8,82.9,144.4z M80.6,122.4
				c2,2.8,2.2,7.5-0.4,9.1c-2.4,1.4-4.7,0.3-6.1-1.7c-1.9-2.7-2.3-7.2,0.8-8.9C77.3,119.4,79.3,120.5,80.6,122.4z"/>
			<path class="st6" d="M123.1,155.6c1.7,2.4,1.7,5.4-1.4,6.8c-3.7,1.7-6.6,0.4-8.1-1.8c-1.8-2.6-1.8-6.3,1.3-7.7
				C118,151.5,121.4,153.3,123.1,155.6z M111.9,148.2c-1.1,0.5-2.2,0.4-3.1-0.9c-10.9-15.4-21.7-31-32.5-46.5
				c-0.1-0.1,0.5-0.3,0.6-0.4c0.9-0.4,12.3,2.8,12.7,3.4c8.5,13.2,24.5,36.4,24.2,42.8C113.8,147,112.6,147.9,111.9,148.2z"/>
			<path class="st6" d="M186.4,115.3c-0.1,0-0.2,0.1-0.1,0.4c4,11.6,7.8,32-9.5,34.8c-15.8,2.6-31-7-39.9-19.6
				c-11.9-16.8-13.7-44.6,12.6-47.5c8.1-0.9,20.2,2.1,24.4,8.1c1.5,2.2,0.9,3.8,0.7,5.3c-0.2,1.9-0.8,7.4-0.8,7.4s-0.2,0.6-0.9,0.7
				c-2,0.2-8.2-5.3-9.2-6.9c-1.6-2.3-0.7-5-0.7-5s0.8-2.7,0.6-3.2c-0.2-0.4-3.8-0.4-6.6-0.1c-21.7,2.5-21.2,29-11.5,42.9
				c6.5,9.4,17.8,13.8,28.9,11.8c21.7-4,7-34.4,2.3-45.4c-0.2-0.4-0.5-0.7-0.3-0.7c0.9-0.1,7,1.6,7.5,1.9c0.9,0.4,1.6,0.9,2.1,1.6
				c0.2,0.2,0.3,0.5,0.5,0.8c7,15.5,21.4,44.4,27.9,48.2c3.1,1.8,16.9-1.3,24.7-2.2c8.1-1,15.1-2.2,19.4-4.2
				c0.5-0.2,0.9-0.4,1.1-0.4c0.2,0,0.3,0,0.4,0.1c0.6,0.8-1.5,1.3-1.2,2.2c1.5,5.4-2.9,7.7-15.9,9.3c-6.7,0.8-26.3-0.8-26.9-0.1
				c-0.2,0.2,0.8,3,1.1,4.4c1.3,7-3.5,12.7-11.5,14.1c-12.2,2.1-20.3-0.6-23.5-5c-4-5.6,0.3-14,16.5-16.4c1.9-0.3,5.9-0.6,6.1-0.8
				c1.6-2.5-10.6-24.9-17.9-36.3C186.7,115.5,186.6,115.3,186.4,115.3z M205.9,155.4c-1.4-1-8.3,0.3-11.4,0.8
				c-8.1,1.3-10.3,6.3-7.9,9.8c1.8,2.6,6.2,4.3,13.1,3.1C205.1,168.2,208.6,157.4,205.9,155.4z"/>
			<path class="st6" d="M234,115.2c0.4,0,0.7,0,0.8,0.3c0.5,1.1-2.5,3.6-2.5,3.9c0,0.1,0.8,0.9,1.1,1.3c5.7,8.1,6.1,17.8-2.5,18.8
				c-8.8,1-16.6-4.4-21.2-11c-6.2-8.8-7-19.7,2.5-20.7c4.5-0.5,12.3,4.8,12.3,4.8c-0.1,0.1-3.6-0.4-5-0.2
				c-8.7,0.9-6.6,10.2-1.7,17.2c3.3,4.7,7.8,8.2,11.3,7.8c4.7-0.5,3-7.8-1.1-13.7c-2.4-3.4-5.6-6.3-9-7.1c0,0,3-2.3,4.3-2.4
				C226.9,114.2,229.9,115.7,234,115.2z"/>
			<path class="st6" d="M294.9,135.6c-6.5,1.2-15-0.8-15.1-0.7c-0.1,0.1,0.1,1.2,0.3,1.6c0.4,1,1.6,2.5,0.3,2.7
				c-3,0.5-9.2-3.5-10.4-5.3c-6.3-9-13.1-25.6-17.4-27.9c-4.6-2.4-24.6-0.9-31.7-9.6c-12.2-15.3,20.1-23.2,28.8-25
				c21.5-4.3,52.6-4,67.2,16.5C331.5,108.5,318.5,131.3,294.9,135.6z M243.1,84.9c1.2-0.4,2.4-0.9,3.5-1.1c0.1,0,0.3,0,0.4,0.3
				c3,4.8,7.1,14.9,9.9,16.2c0.5,0.2,2.3-0.3,3.4-0.5c5-0.8,10.8-5,12.8-5.5c0.2,0-12.9,9.6-13.3,10.5c-0.6,1.5,15.2,22.2,15.2,22.2
				c0.2,0,1.4-2.6,2.9-3.8c0,0,1.6,0,1.6,0.3c0.1,0.4-1.2,2.5-0.1,4.1c1,1.4,3.7,1.8,8.3,1c19.7-3.3,31.9-22.3,19.3-39.8
				c-12.5-17.2-41.5-16.5-59.4-13c-6.1,1.2-29.5,5.4-21.9,16.9c2.8,4.3,24,8,24,7.9c0.5-0.8-5.9-10.9-7.2-14.5
				C242.1,85.5,242.4,85.2,243.1,84.9z"/>
			<path class="st6" d="M324,89c1.4-0.6,2.8-1.6,4.6-2.8c0.8-0.5,1.3,0.1,1.3,0.1c5,11,6.7,15.6,11.6,22.5c1.7,2.4,3,2.8,4,2.3
				c1.8-0.9,2.2-4.9,2.1-6.9c0-0.3,0.2-0.7,0.4-0.8c0.2-0.1,0.5-0.1,0.7,0.2c0,0.1,0.1,0.1,0.1,0.1c1.9,4.4,1.2,9.8-2.6,11.6
				c-4.5,2.1-9.5-2.4-13.6-8.2c-4.3-6-7.6-13.4-8.9-16.8C323.6,90.3,323.3,89.3,324,89z M322.9,68.7c1.8,2.6,1.9,7.1-0.9,8.5
				c-2.6,1.2-4.9,0.1-6.2-1.8c-1.8-2.6-1.8-6.5,1.4-8.1C319.8,66.1,321.7,67,322.9,68.7z"/>
			<path class="st6" d="M345.8,100.6c-5.6-7.5-9.2-21-0.5-27.5c3.1-2.4,7.3-2.3,10,1.5c0,0.1,0.1,0.1,0.1,0.1
				c-1.4,0.4-2.4,0.8-3.4,1.6c-6.6,5-4.3,18-0.1,23.9c2,2.8,5.1,5,6,4c5.3-5.3-4.7-23.9-4.1-26.2c0.3-1.1,6.8-4.6,8.3-2.5
				c0.1,0.1,0.2,0.4,0.3,0.6c4.7,14.1,36.8,52.4,15,65c-5.7,3.3-14.7,0.5-18.2-4.4c-0.5-0.8-0.5-1.3,0-1.5c0.3-0.2,1.2-0.1,1.5,0.2
				c1.8,1.6,7.9,5.9,11.5,3.6c15.2-9.5-2.4-35.4-9.5-45.9c-0.1-0.1-0.3-0.2-0.3-0.2c-0.8,0.8,1.5,12.3-1.5,14.2
				C355.9,110.4,350,106.3,345.8,100.6z"/>
			<path class="st6" d="M388.7,13.4c0.4-1.2,2.5-3.4,3.1-2.6c0.1,0.1,0.1,0.2,0.2,0.4c1.8,6.4,5.8,13.5,8.6,17.5
				c2.8,4,6.4,4.5,7.9-1.6c1.4-5.8,0.9-13.7,0.3-19.6c-0.2-2.1-0.5-6-0.4-7.2c0-0.3,0.1-0.5,0.2-0.3c0.2,0.3,0.7,1.9,1.4,5.4
				c0.4,0.3,0.6,0.5,1,0.8c3.1,11.3,3.1,21.9,2.3,27.6c-2.2,15.8-18.9-2.1-18.9-2.1c-0.2,0.1,5.9,20.4,8.4,26.2
				c0.2,0.5,0.2,1.3-0.2,2.1c-0.9,1.9-3.2,2.6-3.3,2.4c-0.1-0.1-2.9-5.2-6.5-11.1c-1.9-3.2-5.2-8.9-7.5-12.2
				c-0.4-0.6-0.8-0.8-0.8-0.8c-0.5,7.6,13.6,27.6,7.9,38.2c-2.2,4.1-7.4,0.6-11.5-5.1c-4.8-6.8-10.4-18.1-9.4-19.4
				c0.9-1.3,1.7-2.9,2.9-5.1c0.5-0.9,1-0.4,1-0.4c5.6,11.9,7.6,16.9,12.4,23.7c1.6,2.2,2.8,2.4,3.1,1.7c3.5-8.1-3.5-20.9-6.9-30.3
				c-1.6-4.5-2.7-8.3-2.1-9.5c0.8-1.6,0.8-3.6,1.1-4.3c0.3-0.7,2.5,2.2,4.5,4.9c2.3,3.3,7.5,10.7,7.5,10.7
				c0.1-0.1-6.4-19.5-6.8-28.9C388.5,14,388.6,13.7,388.7,13.4z M367.5,27.1c1.8,2.6,2.7,8.2,0.9,11c-1.7,2.5-3.6,1.9-4.9,0.1
				c-1.8-2.5-2.4-7.4-0.4-10.6C364.7,25.1,366.3,25.4,367.5,27.1z"/>
		</g>
	</g>
</g>
</svg>
