<?xml version="1.0" encoding="utf-8"?>
<!-- Generator: Adobe Illustrator 17.0.0, SVG Export Plug-In . SVG Version: 6.00 Build 0)  -->
<!DOCTYPE svg PUBLIC "-//W3C//DTD SVG 1.1//EN" "http://www.w3.org/Graphics/SVG/1.1/DTD/svg11.dtd">
<svg version="1.1" id="Layer_1" xmlns="http://www.w3.org/2000/svg" xmlns:xlink="http://www.w3.org/1999/xlink" x="0px" y="0px"
	 width="10.8px" height="10.4px" viewBox="0 0 10.8 10.4" style="enable-background:new 0 0 10.8 10.4;" xml:space="preserve">
<style type="text/css">
	.st0{fill:#B1B1B1;}
</style>
<path class="st0" d="M10,3.3C10,3.3,10,3.3,10,3.3l-2.9,0L6.2,0.6C6.1,0.2,5.8,0,5.4,0C5.1,0,4.7,0.2,4.6,0.6L3.7,3.4l-2.9,0
	C0.5,3.3,0.2,3.6,0,3.9c-0.1,0.3,0,0.7,0.3,0.9l2.4,1.7L1.8,9.3c-0.1,0.3,0,0.7,0.3,0.9c0.1,0.1,0.3,0.2,0.5,0.2
	c0.2,0,0.3-0.1,0.5-0.2l2.3-1.7l2.4,1.7c0.1,0.1,0.3,0.2,0.5,0.2c0.2,0,0.3,0,0.5-0.2C9,10,9.1,9.6,9,9.3L8.1,6.5l2.4-1.7
	c0.3-0.2,0.4-0.6,0.3-0.9C10.7,3.6,10.3,3.3,10,3.3z"/>
</svg>
