<?xml version="1.0" encoding="utf-8"?>
<!-- Generator: Adobe Illustrator 17.0.0, SVG Export Plug-In . SVG Version: 6.00 Build 0)  -->
<!DOCTYPE svg PUBLIC "-//W3C//DTD SVG 1.1//EN" "http://www.w3.org/Graphics/SVG/1.1/DTD/svg11.dtd">
<svg version="1.1" id="Layer_1" xmlns="http://www.w3.org/2000/svg" xmlns:xlink="http://www.w3.org/1999/xlink" x="0px" y="0px"
	 width="540.2px" height="542.6px" viewBox="0 0 540.2 542.6" style="enable-background:new 0 0 540.2 542.6;" xml:space="preserve"
	>
<style type="text/css">
	.st0{fill:#40C1E1;}
	.st1{fill:#007EB5;}
	.st2{fill:#F1F2F2;}
	.st3{fill:#FFFFFF;}
	.st4{fill:#38A491;}
	.st5{opacity:0.6;fill:#BBBDBF;}
	.st6{fill:#F1F1F2;}
	.st7{fill:#F6B433;}
	.st8{fill:#F7D5A9;}
	.st9{fill:#DF3148;}
</style>
<g>
	<circle class="st0" cx="311.4" cy="313.8" r="228.8"/>
	<g>
		<path class="st1" d="M444.8,252.8c1.7,9.2-4.4,18.1-13.6,19.8L64.3,340.5c-9.2,1.7-18.1-4.4-19.8-13.6L0.3,88
			c-1.7-9.2,4.4-18.1,13.6-19.8L380.8,0.3c9.2-1.7,18.1,4.4,19.8,13.6L444.8,252.8z"/>
		<g>
			
				<rect x="41.9" y="50.2" transform="matrix(0.9833 -0.1819 0.1819 0.9833 -27.6095 42.1258)" class="st2" width="348" height="242.9"/>
			<circle class="st2" cx="33.3" cy="205.4" r="4.3"/>
		</g>
		<circle class="st2" cx="405" cy="136.6" r="12.3"/>
		<g>
			<path class="st3" d="M298.7,237.7c0.9,5.1-2.4,10-7.6,11L132.9,278c-5.1,0.9-10-2.4-11-7.6L92.7,112.2c-0.9-5.1,2.4-10,7.6-11
				L258.4,72c5.1-0.9,10,2.4,11,7.6L298.7,237.7z"/>
			<path class="st4" d="M258.4,72l-158.2,29.3c-5.1,0.9-8.5,5.9-7.6,11l8.2,44.2l176.8-32.7l-8.2-44.2C268.5,74.4,263.5,71,258.4,72
				z"/>
			<g>
				
					<rect x="134.5" y="164.8" transform="matrix(0.9833 -0.1819 0.1819 0.9833 -29.3441 29.1524)" class="st5" width="19.5" height="19.5"/>
				
					<rect x="167.6" y="158.7" transform="matrix(0.9833 -0.1819 0.1819 0.9833 -27.6799 35.0659)" class="st5" width="19.5" height="19.5"/>
				
					<rect x="200.7" y="152.6" transform="matrix(0.9833 -0.1819 0.1819 0.9833 -26.0156 40.9793)" class="st5" width="19.5" height="19.5"/>
				
					<rect x="233.8" y="146.5" transform="matrix(0.9833 -0.1819 0.1819 0.9833 -24.3514 46.8927)" class="st5" width="19.5" height="19.5"/>
				
					<rect x="141.3" y="201.6" transform="matrix(0.9833 -0.1819 0.1819 0.9833 -35.9098 31.0002)" class="st5" width="19.5" height="19.5"/>
				
					<rect x="174.4" y="195.4" transform="matrix(0.9833 -0.1819 0.1819 0.9833 -34.2456 36.9137)" class="st5" width="19.5" height="19.5"/>
				
					<rect x="207.5" y="189.3" transform="matrix(0.9833 -0.1819 0.1819 0.9833 -32.5814 42.8271)" class="st5" width="19.5" height="19.5"/>
				
					<rect x="240.6" y="183.2" transform="matrix(0.9833 -0.1819 0.1819 0.9833 -30.9172 48.7405)" class="st5" width="19.5" height="19.5"/>
				
					<rect x="148.1" y="238.3" transform="matrix(0.9833 -0.1819 0.1819 0.9833 -42.4756 32.8481)" class="st5" width="19.5" height="19.5"/>
				
					<rect x="181.2" y="232.2" transform="matrix(0.9833 -0.1819 0.1819 0.9833 -40.8114 38.7615)" class="st5" width="19.5" height="19.5"/>
				
					<rect x="214.3" y="226" transform="matrix(0.9833 -0.1819 0.1819 0.9833 -39.1472 44.6749)" class="st5" width="19.5" height="19.5"/>
				
					<rect x="247.3" y="219.9" transform="matrix(0.9833 -0.1819 0.1819 0.9833 -37.483 50.5883)" class="st5" width="19.5" height="19.5"/>
			</g>
			<g>
				<path class="st6" d="M134.5,124.9c-0.2-0.8-0.4-1.5-0.5-2.3c-0.1-0.8-0.3-1.6-0.4-2.3c-0.1-0.8-0.2-1.4-0.2-2
					c-0.1-0.8,0-1.6,0.2-2.4c0.2-0.8,0.5-1.5,1-2.2c0.4-0.7,1-1.2,1.7-1.7c0.7-0.5,1.5-0.8,2.5-1c0.9-0.2,1.7-0.2,2.5,0
					c0.8,0.1,1.5,0.4,2.2,0.8c0.7,0.4,1.3,1,1.8,1.6c0.5,0.7,0.9,1.5,1.2,2.4c0.2,0.6,0.4,1.2,0.5,2c0.2,0.8,0.3,1.5,0.5,2.3
					c0.1,0.8,0.3,1.6,0.4,2.3c0.1,0.8,0.2,1.5,0.2,2c0.1,0.8,0,1.6-0.2,2.4c-0.2,0.8-0.5,1.5-1,2.2s-1,1.2-1.7,1.7
					c-0.7,0.5-1.5,0.8-2.5,1c-0.9,0.2-1.7,0.2-2.5,0s-1.5-0.4-2.2-0.8c-0.7-0.4-1.2-1-1.8-1.6c-0.5-0.7-0.9-1.5-1.2-2.4
					C134.9,126.4,134.7,125.7,134.5,124.9z M136.4,119.8c0.1,0.8,0.2,1.5,0.4,2.3s0.3,1.6,0.5,2.3c0.2,0.7,0.4,1.4,0.5,2
					c0.1,0.4,0.3,0.8,0.6,1.2c0.3,0.4,0.6,0.7,1,0.9c0.4,0.2,0.8,0.4,1.3,0.5c0.5,0.1,1,0.1,1.6,0c1-0.2,1.8-0.6,2.3-1.3
					c0.6-0.7,0.9-1.6,0.8-2.7c0-0.6-0.1-1.3-0.2-2.1c-0.1-0.8-0.2-1.5-0.4-2.3c-0.1-0.8-0.3-1.6-0.5-2.3c-0.2-0.7-0.4-1.4-0.6-2
					c-0.1-0.4-0.3-0.8-0.6-1.2c-0.3-0.4-0.6-0.7-1-0.9c-0.4-0.2-0.8-0.4-1.3-0.5c-0.5-0.1-1-0.1-1.6,0c-0.9,0.2-1.7,0.6-2.3,1.3
					c-0.6,0.7-0.9,1.6-0.8,2.7C136.3,118.3,136.3,119,136.4,119.8z"/>
				<path class="st6" d="M150.7,122c-0.2-0.8-0.4-1.5-0.5-2.3c-0.1-0.8-0.3-1.6-0.4-2.3c-0.1-0.8-0.2-1.4-0.2-2
					c-0.1-0.8,0-1.6,0.2-2.4c0.2-0.8,0.5-1.5,1-2.2c0.4-0.7,1-1.2,1.7-1.7c0.7-0.5,1.5-0.8,2.5-1c0.9-0.2,1.7-0.2,2.6-0.1
					c0.8,0.1,1.6,0.4,2.3,0.8c0.7,0.4,1.3,1,1.8,1.6c0.5,0.7,0.8,1.5,1,2.4l0.1,0.4c0,0.2,0,0.3-0.1,0.4c-0.1,0.1-0.2,0.2-0.4,0.3
					l-1.6,0.3c-0.2,0-0.3,0-0.4-0.1c-0.1-0.1-0.2-0.2-0.3-0.4l-0.1-0.4c-0.1-0.4-0.2-0.8-0.5-1.2c-0.2-0.4-0.6-0.7-1-0.9
					c-0.4-0.2-0.8-0.4-1.3-0.5s-1-0.1-1.6,0c-0.9,0.2-1.7,0.6-2.3,1.3c-0.6,0.7-0.9,1.6-0.8,2.7c0,0.6,0.1,1.3,0.2,2.1
					c0.1,0.8,0.2,1.5,0.4,2.3c0.1,0.8,0.3,1.6,0.5,2.3c0.2,0.7,0.4,1.4,0.5,2c0.1,0.4,0.3,0.8,0.6,1.2c0.3,0.4,0.6,0.7,1,0.9
					c0.4,0.2,0.8,0.4,1.3,0.5c0.5,0.1,1,0.1,1.6,0c0.5-0.1,0.9-0.2,1.4-0.5c0.4-0.2,0.8-0.5,1.1-0.8c0.3-0.3,0.5-0.7,0.7-1.2
					c0.1-0.5,0.2-0.9,0.1-1.5l-0.1-0.4c0-0.2,0-0.3,0.1-0.4c0.1-0.1,0.2-0.2,0.4-0.3l1.6-0.3c0.2,0,0.3,0,0.4,0.1s0.2,0.2,0.3,0.4
					l0.1,0.4c0.2,0.8,0.1,1.6,0,2.4c-0.2,0.8-0.5,1.5-1,2.2c-0.5,0.7-1.1,1.2-1.8,1.7c-0.7,0.5-1.6,0.8-2.6,1
					c-0.9,0.2-1.7,0.2-2.5,0c-0.8-0.1-1.5-0.4-2.2-0.8c-0.7-0.4-1.2-1-1.8-1.6c-0.5-0.7-0.9-1.5-1.2-2.4
					C151,123.4,150.8,122.7,150.7,122z"/>
				<path class="st6" d="M163.2,109l-0.3-1.6c0-0.2,0-0.3,0.1-0.4c0.1-0.1,0.2-0.2,0.4-0.3l11-2c0.2,0,0.3,0,0.4,0.1
					c0.1,0.1,0.2,0.2,0.3,0.4l0.3,1.6c0,0.2,0,0.3-0.1,0.4c-0.1,0.1-0.2,0.2-0.4,0.3l-3.8,0.7c-0.2,0-0.3,0.1-0.2,0.3l3.1,16.7
					c0,0.2,0,0.3-0.1,0.4c-0.1,0.1-0.2,0.2-0.4,0.3l-1.6,0.3c-0.2,0-0.3,0-0.4-0.1c-0.1-0.1-0.2-0.2-0.3-0.4l-3.1-16.7
					c0-0.2-0.2-0.3-0.3-0.2l-3.8,0.7c-0.2,0-0.3,0-0.4-0.1C163.3,109.3,163.2,109.1,163.2,109z"/>
				<path class="st6" d="M178.1,116.9c-0.2-0.8-0.4-1.5-0.5-2.3s-0.3-1.6-0.4-2.3c-0.1-0.8-0.2-1.4-0.2-2c-0.1-0.8,0-1.6,0.2-2.4
					c0.2-0.8,0.5-1.5,1-2.2c0.4-0.7,1-1.2,1.7-1.7c0.7-0.5,1.5-0.8,2.5-1c0.9-0.2,1.7-0.2,2.5,0c0.8,0.1,1.5,0.4,2.2,0.8
					c0.7,0.4,1.3,1,1.8,1.6s0.9,1.5,1.2,2.4c0.2,0.6,0.4,1.2,0.5,2c0.2,0.8,0.3,1.5,0.5,2.3c0.1,0.8,0.3,1.6,0.4,2.3
					c0.1,0.8,0.2,1.5,0.2,2c0.1,0.8,0,1.6-0.2,2.4c-0.2,0.8-0.5,1.5-1,2.2s-1,1.2-1.7,1.7c-0.7,0.5-1.5,0.8-2.5,1
					c-0.9,0.2-1.7,0.2-2.5,0c-0.8-0.1-1.5-0.4-2.2-0.8c-0.7-0.4-1.2-1-1.8-1.6c-0.5-0.7-0.9-1.5-1.2-2.4
					C178.5,118.3,178.3,117.6,178.1,116.9z M180,111.7c0.1,0.8,0.2,1.5,0.4,2.3c0.1,0.8,0.3,1.6,0.5,2.3c0.2,0.7,0.4,1.4,0.5,2
					c0.1,0.4,0.3,0.8,0.6,1.2c0.3,0.4,0.6,0.7,1,0.9c0.4,0.2,0.8,0.4,1.3,0.5c0.5,0.1,1,0.1,1.6,0c1-0.2,1.8-0.6,2.3-1.3
					c0.6-0.7,0.9-1.6,0.8-2.7c0-0.6-0.1-1.3-0.2-2.1c-0.1-0.8-0.2-1.5-0.4-2.3c-0.1-0.8-0.3-1.6-0.5-2.3c-0.2-0.7-0.4-1.4-0.6-2
					c-0.1-0.4-0.3-0.8-0.6-1.2c-0.3-0.4-0.6-0.7-1-0.9c-0.4-0.2-0.8-0.4-1.3-0.5c-0.5-0.1-1-0.1-1.6,0c-0.9,0.2-1.7,0.6-2.3,1.3
					c-0.6,0.7-0.9,1.6-0.8,2.7C179.8,110.3,179.9,111,180,111.7z"/>
				<path class="st6" d="M196.1,121l-3.5-19.2c0-0.2,0-0.3,0.1-0.4c0.1-0.1,0.2-0.2,0.4-0.3l5.4-1c0.8-0.1,1.5-0.1,2.3,0
					c0.7,0.1,1.4,0.4,2,0.8c0.6,0.4,1.1,0.9,1.5,1.5c0.4,0.6,0.7,1.3,0.8,2.1c0.1,0.7,0.1,1.4,0,2.2c-0.1,0.8-0.4,1.5-0.9,2
					c-0.2,0.3-0.2,0.5,0.1,0.6c0.7,0.4,1.3,0.9,1.8,1.7c0.5,0.8,0.9,1.5,1,2.4c0.2,0.8,0.1,1.7,0,2.4c-0.2,0.8-0.5,1.5-1,2.1
					c-0.4,0.6-1,1.2-1.7,1.6c-0.7,0.4-1.5,0.7-2.3,0.9l-5.4,1c-0.2,0-0.3,0-0.4-0.1C196.2,121.3,196.1,121.2,196.1,121z
					 M196.6,108.9c0,0.2,0.1,0.3,0.3,0.2l3-0.5c0.9-0.2,1.6-0.6,2-1.2c0.4-0.7,0.5-1.4,0.4-2.3c-0.1-0.4-0.2-0.8-0.5-1.1
					c-0.2-0.3-0.5-0.5-0.8-0.7c-0.3-0.2-0.7-0.3-1-0.3s-0.8,0-1.1,0l-3,0.5c-0.2,0-0.3,0.1-0.2,0.3L196.6,108.9z M198.3,118.1
					c0,0.2,0.1,0.3,0.3,0.2l3-0.5c0.4-0.1,0.9-0.2,1.2-0.5c0.4-0.2,0.7-0.5,0.9-0.9c0.2-0.3,0.4-0.7,0.5-1.1c0.1-0.4,0.1-0.8,0-1.3
					c-0.1-0.5-0.3-0.9-0.5-1.3c-0.3-0.4-0.6-0.7-0.9-1c-0.4-0.2-0.8-0.4-1.2-0.5c-0.4-0.1-0.9-0.1-1.3,0l-3,0.5
					c-0.1,0-0.1,0-0.2,0.1c0,0.1-0.1,0.2,0,0.3L198.3,118.1z"/>
				<path class="st6" d="M210.7,118.3l-3.5-19.2c0-0.2,0-0.3,0.1-0.4c0.1-0.1,0.2-0.2,0.4-0.3l9.4-1.7c0.2,0,0.3,0,0.4,0.1
					c0.1,0.1,0.2,0.2,0.3,0.4l0.3,1.6c0,0.2,0,0.3-0.1,0.4c-0.1,0.1-0.2,0.2-0.4,0.3l-6.9,1.3c-0.2,0-0.3,0.1-0.2,0.3l1,5.2
					c0,0.2,0.1,0.3,0.3,0.2l6.6-1.2c0.2,0,0.3,0,0.4,0.1c0.1,0.1,0.2,0.2,0.3,0.4l0.3,1.6c0,0.2,0,0.3-0.1,0.4
					c-0.1,0.1-0.2,0.2-0.4,0.3l-6.6,1.2c-0.2,0-0.3,0.2-0.2,0.3l1,5.7c0,0.2,0.1,0.3,0.3,0.2l7-1.3c0.2,0,0.3,0,0.4,0.1
					c0.1,0.1,0.2,0.2,0.3,0.4l0.3,1.6c0,0.2,0,0.3-0.1,0.4c-0.1,0.1-0.2,0.2-0.4,0.3l-9.4,1.7c-0.2,0-0.3,0-0.4-0.1
					C210.8,118.6,210.8,118.5,210.7,118.3z"/>
				<path class="st6" d="M224.4,115.8l-3.5-19.2c0-0.2,0-0.3,0.1-0.4c0.1-0.1,0.2-0.2,0.4-0.3l5.2-1c0.8-0.2,1.6-0.1,2.4,0
					c0.8,0.2,1.5,0.5,2.2,1c0.7,0.5,1.2,1,1.7,1.7c0.5,0.7,0.8,1.4,0.9,2.3c0.2,1.1,0.1,2.2-0.3,3.2c-0.4,1-1,1.9-1.8,2.6
					c-0.2,0.2-0.4,0.4-0.5,0.6s0,0.4,0.2,0.6l4.7,6.4c0.1,0.2,0.2,0.4,0.1,0.6c-0.1,0.2-0.2,0.3-0.5,0.4l-1.6,0.3
					c-0.2,0-0.4,0-0.6-0.1c-0.1-0.1-0.3-0.2-0.4-0.4l-4.8-6.6c-0.1-0.1-0.1-0.2-0.2-0.2c-0.1,0-0.2-0.1-0.4,0l-1.8,0.3
					c-0.2,0-0.3,0.1-0.2,0.3l1.3,7.3c0,0.2,0,0.3-0.1,0.4c-0.1,0.1-0.2,0.2-0.4,0.3l-1.6,0.3c-0.2,0-0.3,0-0.4-0.1
					C224.5,116.1,224.4,116,224.4,115.8z M225.2,104.7c0,0.2,0.1,0.3,0.3,0.2l2.8-0.5c0.5-0.1,0.9-0.3,1.2-0.5
					c0.4-0.2,0.7-0.6,0.9-0.9c0.3-0.4,0.4-0.8,0.5-1.2c0.1-0.4,0.1-0.9,0-1.4c-0.1-0.5-0.3-0.9-0.5-1.2c-0.2-0.4-0.6-0.7-0.9-0.9
					c-0.4-0.3-0.8-0.4-1.2-0.5c-0.4-0.1-0.9-0.1-1.3,0l-2.8,0.5c-0.2,0-0.3,0.1-0.2,0.3L225.2,104.7z"/>
			</g>
			<g>
				<path class="st7" d="M124.9,106.4c0.7,3.8-1.8,7.5-5.6,8.2l0,0c-3.8,0.7-7.5-1.8-8.2-5.6l-1.9-10.3c-0.7-3.8,1.8-7.5,5.6-8.2
					l0,0c3.8-0.7,7.5,1.8,8.2,5.6L124.9,106.4z"/>
				<path class="st7" d="M251.1,83.1c0.7,3.8-1.8,7.5-5.6,8.2l0,0c-3.8,0.7-7.5-1.8-8.2-5.6l-1.9-10.3c-0.7-3.8,1.8-7.5,5.6-8.2l0,0
					c3.8-0.7,7.5,1.8,8.2,5.6L251.1,83.1z"/>
			</g>
		</g>
	</g>
	<path class="st8" d="M394.9,267.7h-0.1c0.1-9.1-7.3-16.5-16.3-16.5c-8.9-0.1-16.5,6.5-16.5,15.8c0,4.2-4.9,3.3-4.8-0.5
		c0-2.9-0.1-6.5-0.1-6.5c0.1-9.1-7.3-16.5-16.3-16.5c-9.1-0.1-16.5,7.3-16.5,16.3l-0.1,3c0,3.7-5,3-5-0.6l-0.1-10.7
		c0.1-9.1-7.3-16.5-16.3-16.5c-9.1-0.1-16.7,7.3-16.7,16.4l0,7.3c0,4-5,4.1-5-0.6l0.4-88.4c0.1-9.1-7.3-16.5-16.3-16.5
		c-9.1-0.1-16.5,7.3-16.5,16.3l0,163.9c-4-7.2-14.9-25.9-18.9-32.6c-18.2-21.2-41.3-6.3-41.3-6.3l67.2,118.7l0,19.4l103.9,0.6
		l0.8-19c0,0,34.2-15.7,34.6-86.3C394.8,298.4,394.9,267.7,394.9,267.7z"/>
	<path class="st9" d="M236.6,530.1c23.4,8.1,48.6,12.5,74.8,12.5c26.2,0,51.4-4.4,74.8-12.5V403.5H236.6V530.1z"/>
</g>
</svg>
