<?xml version="1.0" encoding="utf-8"?>
<!-- Generator: Adobe Illustrator 17.0.0, SVG Export Plug-In . SVG Version: 6.00 Build 0)  -->
<!DOCTYPE svg PUBLIC "-//W3C//DTD SVG 1.1//EN" "http://www.w3.org/Graphics/SVG/1.1/DTD/svg11.dtd">
<svg version="1.1" id="Layer_1" xmlns="http://www.w3.org/2000/svg" xmlns:xlink="http://www.w3.org/1999/xlink" x="0px" y="0px"
	 width="21.5px" height="20.2px" viewBox="0 0 21.5 20.2" style="enable-background:new 0 0 21.5 20.2;" xml:space="preserve">
<style type="text/css">
	.st0{fill:#BBBDBF;}
</style>
<path class="st0" d="M0,0v20.2h21.5V0H0z M5.2,19H1.3v-3.8h3.9V19z M5.2,14H1.3v-3.8h3.9V14z M5.2,9.1H1.3V5.3h3.9V9.1z M10.2,19
	H6.3v-3.8h3.9V19z M10.2,14H6.3v-3.8h3.9V14z M10.2,9.1H6.3V5.3h3.9V9.1z M15.2,19h-3.8v-3.8h3.8V19z M15.2,14h-3.8v-3.8h3.8V14z
	 M15.2,9.1h-3.8V5.3h3.8V9.1z M20.2,19L20.2,19h-3.9v-3.8h3.9V19z M20.2,14L20.2,14h-3.9v-3.8h3.9V14z M20.2,9.1L20.2,9.1h-3.9V5.3
	h3.9V9.1z"/>
</svg>
