<?xml version="1.0" encoding="utf-8"?>
<!-- Generator: Adobe Illustrator 17.0.0, SVG Export Plug-In . SVG Version: 6.00 Build 0)  -->
<!DOCTYPE svg PUBLIC "-//W3C//DTD SVG 1.1//EN" "http://www.w3.org/Graphics/SVG/1.1/DTD/svg11.dtd">
<svg version="1.1" id="Layer_1" xmlns="http://www.w3.org/2000/svg" xmlns:xlink="http://www.w3.org/1999/xlink" x="0px" y="0px"
	 width="174.3px" height="182.9px" viewBox="0 0 174.3 182.9" style="enable-background:new 0 0 174.3 182.9;" xml:space="preserve"
	>
<style type="text/css">
	.st0{fill:#1AAEBC;}
	.st1{fill:#FF7234;}
	.st2{fill:#B92431;}
	.st3{fill:#FDD077;}
	.st4{fill:#01546A;}
	.st5{fill:#FFFFFF;}
	.st6{fill:#F7B033;}
	.st7{fill:#F2BF86;}
</style>
<g>
	<circle class="st0" cx="87.2" cy="95.8" r="87.2"/>
	<circle class="st1" cx="85.4" cy="73.4" r="38.2"/>
	<path class="st2" d="M134.7,73.4c0,21.1,17.1,38.2,38.2,38.2c0,0,0,0,0,0c0.9-5.1,1.4-10.4,1.4-15.8c0-21.2-7.5-40.6-20.1-55.7
		C142.6,46.6,134.7,59.1,134.7,73.4z"/>
	<path class="st3" d="M18.9,41.5C7.1,56.4,0,75.3,0,95.8c0,5.3,0.5,10.6,1.4,15.7c19.4-1.8,34.7-18.1,34.7-38
		C36.1,60.1,29.2,48.4,18.9,41.5z"/>
	<g>
		<g>
			<path class="st4" d="M84.7,59.6l-4.4-1.4l-1.5,0c-2-0.8-4.4-1.3-7-1.3c-2.1,0-4.1,0.3-5.9,0.9l-2.2-0.1L59,58.9v0.4
				c0,0,0,10,0,10.1c0,4.5,5.7,8.2,12.8,8.2c7.1,0,12.8-3.7,12.8-8.2C84.7,69.3,84.7,59.6,84.7,59.6z"/>
			<ellipse class="st5" cx="71.9" cy="59.1" rx="12.8" ry="8.2"/>
			<ellipse class="st6" cx="71.9" cy="59.1" rx="7.3" ry="4.7"/>
			<ellipse class="st5" cx="70.3" cy="56.3" rx="1.3" ry="0.5"/>
			<ellipse class="st5" cx="75.4" cy="57.1" rx="1.4" ry="0.8"/>
			<ellipse class="st5" cx="71.7" cy="60.3" rx="2.7" ry="1.1"/>
		</g>
		<g>
			<path class="st4" d="M115.5,59.6l-4.4-1.4l-1.5,0c-2-0.8-4.4-1.3-7-1.3c-2.1,0-4.1,0.3-5.9,0.9l-2.2-0.1l-4.7,1.2v0.4
				c0,0,0,10,0,10.1c0,4.5,5.7,8.2,12.8,8.2c7.1,0,12.8-3.7,12.8-8.2C115.5,69.3,115.5,59.6,115.5,59.6z"/>
			<ellipse class="st5" cx="102.7" cy="59.1" rx="12.8" ry="8.2"/>
			<ellipse class="st6" cx="102.7" cy="59.1" rx="7.3" ry="4.7"/>
			<ellipse class="st5" cx="101.1" cy="56.3" rx="1.3" ry="0.5"/>
			<ellipse class="st5" cx="106.2" cy="57.1" rx="1.4" ry="0.8"/>
			<ellipse class="st5" cx="102.5" cy="60.3" rx="2.7" ry="1.1"/>
		</g>
		<g>
			<path class="st4" d="M99.6,86.3l-4.4-1.4l-1.5,0c-2-0.8-4.4-1.3-7-1.3c-2.1,0-4.1,0.3-5.9,0.9l-2.2-0.1L74,85.6V86
				c0,0,0,10,0,10.1c0,4.5,5.7,8.2,12.8,8.2c7.1,0,12.8-3.7,12.8-8.2C99.6,96,99.6,86.3,99.6,86.3z"/>
			<ellipse class="st5" cx="86.8" cy="85.8" rx="12.8" ry="8.2"/>
			<ellipse class="st6" cx="86.8" cy="85.8" rx="7.3" ry="4.7"/>
			<ellipse class="st5" cx="85.2" cy="83" rx="1.3" ry="0.5"/>
			<ellipse class="st5" cx="90.4" cy="83.8" rx="1.4" ry="0.8"/>
			<ellipse class="st5" cx="86.7" cy="87" rx="2.7" ry="1.1"/>
		</g>
	</g>
	<path class="st4" d="M99.7,24.1C89.1,2.6,63-6.1,41.6,4.5C20.1,15.2,11.3,41.3,22,62.7C31.6,82,53.6,91,73.6,84.9
		c-0.1,1.4,0.2,2.9,0.8,4.2l34.6,70.2c2,4.1,7,5.7,11.1,3.7c4.1-2,5.7-7,3.7-11.1L89.2,81.8c-0.7-1.4-1.7-2.4-2.9-3.2
		C103.2,66.4,109.3,43.4,99.7,24.1z M76.8,75.4C59.1,84.2,37.6,77,28.9,59.3C20.1,41.6,27.3,20.2,45,11.4
		c17.7-8.8,39.1-1.6,47.9,16.1C101.7,45.2,94.5,66.6,76.8,75.4z"/>
	<path class="st5" d="M89.1,29.4c-0.1-0.2-0.2-0.3-0.2-0.5c5.3,15.2-1.5,32.3-16.2,39.7c-11.8,5.9-25.5,3.9-35.1-4
		c9.2,10.2,24.4,13.4,37.4,7C90.5,63.9,96.9,45,89.1,29.4z"/>
	<path class="st1" d="M120.4,176.3c19-7.9,34.6-22.2,44.1-40.3l-25.2-7.8L120.4,176.3z"/>
	<path class="st7" d="M107.5,154.6c0,0,3.4-3.2-4.2-7.9s7.5-6-6.4-13.2l-10.6-20.3l-2.3,6.1c-0.4,1.4-1.2,5.6,3.6,8.4l-0.8,2.2l0,0
		l-0.2,0.4c-0.5,1.6-3,6.7,4.4,11l-0.3,2.9c-0.2,2.6,0,6.2,1.6,8c0.3,0.3,0.7,0.6,1.2,0.8l1.6,0.6c0,0,2.4,8.5,10.9,10.3
		c0,0,0,0,0,0c0,0,8.1,2.4,10.2-3.2C117.4,157.5,107.5,154.6,107.5,154.6z"/>
	<path class="st7" d="M126.5,115.7c-5.8-7.7-11.7-8.8-14.7-8.8l-1.9,0.2c0,0-9.4-8.2-15.8-15.6c-6.3-7.3-10.3-5.2-11.8-4
		c-4.2,3.5-1,6.9-1,6.9l7.8,8.5c2,2.2,9.2,9.7,11.7,17.5c3.7,19.8,16,24.2,16,24.2l6.9,13l1.1,9.5l13.4-36L126.5,115.7z"/>
</g>
</svg>
