<?xml version="1.0" encoding="utf-8"?>
<!-- Generator: Adobe Illustrator 17.0.0, SVG Export Plug-In . SVG Version: 6.00 Build 0)  -->
<!DOCTYPE svg PUBLIC "-//W3C//DTD SVG 1.1//EN" "http://www.w3.org/Graphics/SVG/1.1/DTD/svg11.dtd">
<svg version="1.1" id="Layer_1" xmlns="http://www.w3.org/2000/svg" xmlns:xlink="http://www.w3.org/1999/xlink" x="0px" y="0px"
	 width="112px" height="30px" viewBox="0 0 112 30" style="enable-background:new 0 0 112 30;" xml:space="preserve">
<style type="text/css">
	.st0{fill:#FFFFFF;}
</style>
<g>
	<path class="st0" d="M64.1,5.7c1.9,0,3.2-1.2,3.2-2.9c0-1.7-1.3-2.9-3.2-2.9c-1.9,0-3.2,1.2-3.2,2.9C60.9,4.5,62.2,5.7,64.1,5.7z"
		/>
	<path class="st0" d="M90.6,5.7c1.9,0,3.2-1.2,3.2-2.9c0-1.7-1.3-2.9-3.2-2.9c-1.9,0-3.2,1.2-3.2,2.9C87.5,4.5,88.8,5.7,90.6,5.7z"
		/>
	<path class="st0" d="M38.1,12.4c-1.9,0-3.2,1.2-3.2,2.9c0,1.7,1.3,2.9,3.2,2.9c1.9,0,3.2-1.2,3.2-2.9C41.3,13.6,40,12.4,38.1,12.4z
		"/>
	<path class="st0" d="M26,6.4c-5.6,0-8.3,4.5-8.3,9.1c0,0.7,0.1,1.3,0.2,2c-0.6,0.4-1.3,0.7-2.2,1V8.1c0,0-2-1.4-6.4-1.4
		C3.5,6.6,0,10.8,0,15.9c0,3.2,1.2,5.2,2.9,6.2c-1.1,0.9-1.7,2.1-1.7,3.5c0,2.7,2.1,4.4,5.6,4.4c5.4,0,8.4-3.7,8.9-8
		c1.4-0.4,2.5-0.9,3.2-1.7c1.2,2.3,3.5,3.7,6.6,3.7c3,0,5.4-1.4,6.9-3.7c0.3-0.4,0.9-1.6,1.2-3.2c0.1-0.6,0.2-1.3,0.2-2
		C33.7,9.5,30.8,6.4,26,6.4z M7,27.1c-0.8,0-1.7-0.3-1.7-1.5c0-1.4,1.1-2.5,4.5-2.9C9.7,25.3,8.9,27.1,7,27.1z M9.8,16.3
		c0,2-0.9,3.1-2,3.1c-1.3,0-2-1.6-2-3.9c0-2.9,1.2-5.1,3.2-5.1c0.4,0,0.8,0.1,0.8,0.1V16.3z M30.1,15.2c-0.1,2.4-0.6,3.6-1.2,4.1
		c0,0-0.8,0.7-1.7,0.7c-1.9-0.1-3.2-1.6-3.2-4.9c0-2.9,1.2-4.9,3.2-4.9c0.9,0,1.7,0.4,2.2,1.2l0,0c0,0,0,0,0,0c0,0,0,0.1,0.1,0.1
		c0,0,0,0,0,0C29.7,12,30.2,13.3,30.1,15.2z"/>
	<path class="st0" d="M107.4,6.3c-3.6,0-4.9,3.5-4.9,3.5V7.3h-6.1v11.7c-0.3,0.3-0.8,0.6-1.4,0.6c-1.1,0-1.4-0.6-1.4-1.8V7.3h-6V17
		c-0.6,0.5-1.5,1.1-2.8,1.5v-0.3V8.1c0,0-2-1.4-6.4-1.4c-5.8,0-9.3,4.1-9.3,9.2c0,1.3,0.2,2.3,0.5,3.3c-0.3,0.2-0.7,0.4-1.2,0.4
		c-1.1,0-1.4-0.6-1.4-1.8V7.3h-6v10.1c0,0.5,0,1,0.1,1.4c-0.3,0.4-0.7,0.8-1.5,0.8c-1.2,0-1.4-0.6-1.4-1.8V0.3h-5.8v6.6
		c-0.5-0.1-1-0.2-1.7-0.2c-5.1,0-8.1,4-8.1,9.2c0,4,1.5,8,5.7,8c3.6,0,4.7-3.3,4.7-3.3c0.5,1.6,1.7,3.3,4.6,3.3c2,0,3.6-1,4.4-2.4
		c0.8,1.5,2.2,2.4,4.3,2.4c2.1,0,4-1.1,4.8-2.6c0.3,0.3,0.6,0.5,1,0.7c-1.1,0.9-1.7,2.1-1.7,3.5c0,2.7,2.1,4.4,5.6,4.4
		c5.3,0,8.3-3.5,8.8-7.8c0-0.1,0-0.1,0-0.2l0,0c1.4-0.4,2.5-1,3.3-1.7c0.7,2.3,2.2,3.6,4.8,3.6c1.4,0,2.7-0.5,3.6-1.3v0.9h6.1v-9.7
		c0-1.8,0.9-2.7,2-2.7c0.8,0,1.4,0.4,1.4,1.5c0,1.6-0.4,8-0.5,10.9h6c0.1-2.8,0.6-10.2,0.6-12.1C112,8.3,110.5,6.3,107.4,6.3z
		 M52.4,16.4c-0.1,2-0.9,3-2.1,3c-1.3,0-2-1.3-2-3.9c0-2.8,1.1-5.2,3.2-5.2c0.3,0,0.6,0,0.9,0.1V16.4z M76.1,27.1
		c-0.8,0-1.7-0.3-1.7-1.5c0-1.4,1.1-2.5,4.5-2.9C78.8,25.3,78,27.1,76.1,27.1z M78.9,16.3c0,2-0.9,3.1-2,3.1c-1.3,0-2-1.6-2-3.9
		c0-2.9,1.2-5.1,3.2-5.1c0.4,0,0.8,0.1,0.8,0.1V16.3z"/>
</g>
</svg>
