<?xml version="1.0" encoding="utf-8"?>
<!-- Generator: Adobe Illustrator 17.0.0, SVG Export Plug-In . SVG Version: 6.00 Build 0)  -->
<!DOCTYPE svg PUBLIC "-//W3C//DTD SVG 1.1//EN" "http://www.w3.org/Graphics/SVG/1.1/DTD/svg11.dtd">
<svg version="1.1" id="Layer_1" xmlns="http://www.w3.org/2000/svg" xmlns:xlink="http://www.w3.org/1999/xlink" x="0px" y="0px"
	 width="503.7px" height="322.7px" viewBox="0 0 503.7 322.7" style="enable-background:new 0 0 503.7 322.7;" xml:space="preserve"
	>
<style type="text/css">
	.st0{fill:#107BF6;}
</style>
<g>
	<g>
		<path class="st0" d="M387.6,67.2c-10.3-0.2-20.6,1-30.6,3.6c-12.9-20.9-30.9-38.4-52.2-50.7C282.6,7.2,257.4,0.3,231.8,0l-0.1,0
			l-0.1,0C159.5,1,98.3,52.6,85,123.3c-46.4,4.3-85,48.5-85,98c0,52.4,43.1,98.4,92.3,98.4h101.4c5.6,0,10.1-4.5,10.1-10.1
			c0-5.6-4.5-10.1-10.1-10.1H92.3c-38.4,0-72.1-36.5-72.1-78.1c0-41.5,33.4-77.8,71.5-77.8h10.6l1.2-8.9c4.1-31.3,19.3-60,42.8-81
			c23.5-21,53.8-32.8,85.3-33.3c46.6,0.7,89.4,26.6,111.7,67.6l4.2,7.5l8-2.9c10.2-3.5,20.9-5.2,31.7-4.9l0.1,0
			c53,0,96.1,46.1,96.1,102.7c0,58.2-46.7,109.2-100,109.2h-67.3c-5.6,0-10.1,4.5-10.1,10.1c0,5.6,4.5,10.1,10.1,10.1h67.3
			c64.1,0,120.3-60.5,120.3-129.5C503.7,122.4,451.6,67.2,387.6,67.2z"/>
		<path class="st0" d="M309.3,231.3c1.9,1.7,4.3,2.6,6.8,2.6c2.9,0,5.7-1.2,7.6-3.4c3.7-4.2,3.3-10.6-0.9-14.3l-68-61.2l-68,61.2
			c-2,1.8-3.2,4.3-3.3,7c-0.1,2.7,0.8,5.3,2.6,7.3c1.9,2.1,4.7,3.4,7.5,3.4c2.5,0,4.9-0.9,6.8-2.6l44.3-39.9v121.1
			c0,5.6,4.5,10.1,10.1,10.1s10.1-4.5,10.1-10.1V191.5L309.3,231.3z"/>
	</g>
</g>
</svg>
